<?xml version="1.0" encoding="UTF-8"?>
<svg version="1.1" xmlns="http://www.w3.org/2000/svg" width="428" height="422">
<path d="M0 0 C0.11122227 6.72601603 -0.30621068 13.24948751 -1.00976562 19.93579102 C-1.1170549 20.99049088 -1.22434418 22.04519073 -1.33488464 23.1318512 C-1.68770324 26.58965906 -2.04692912 30.04676856 -2.40625 33.50390625 C-2.65326955 35.91238914 -2.89988637 38.32091337 -3.14611816 40.72947693 C-3.79312212 47.04762884 -4.44557481 53.36520647 -5.09918213 59.68267822 C-5.76604188 66.13772216 -6.42772164 72.59329682 -7.08984375 79.04882812 C-8.38817366 91.69974187 -9.6920872 104.35007357 -11 117 C-14.42482707 115.38223883 -16.65690522 113.57656756 -19.328125 110.8671875 C-20.12734375 110.06152344 -20.9265625 109.25585938 -21.75 108.42578125 C-22.575 107.58402344 -23.4 106.74226563 -24.25 105.875 C-25.51070313 104.60076172 -25.51070313 104.60076172 -26.796875 103.30078125 C-28.86915683 101.20495077 -30.93662393 99.10459287 -33 97 C-36.77194796 100.19052761 -40.5116234 103.37158729 -44 106.875 C-44.598125 107.47054687 -45.19625 108.06609375 -45.8125 108.6796875 C-47.68692045 110.66791205 -49.48612209 112.69141724 -51.27734375 114.75390625 C-54.93555499 118.95807559 -58.72828698 123.01910486 -62.5625 127.0625 C-63.97158842 128.5544663 -65.38043788 130.04665831 -66.7890625 131.5390625 C-67.49192383 132.28317383 -68.19478516 133.02728516 -68.91894531 133.79394531 C-72.10070334 137.16681785 -75.27184309 140.54951617 -78.4375 143.9375 C-79.3052002 144.86598755 -79.3052002 144.86598755 -80.19042969 145.81323242 C-83.43891534 149.29837203 -86.64367763 152.81692783 -89.8125 156.375 C-93.36666858 160.35777889 -97.09815335 164.11654909 -100.89453125 167.8671875 C-103.39026927 170.3953377 -105.70375669 173.04235331 -108.01953125 175.734375 C-113.79668241 182.34334477 -119.85091218 188.71870049 -125.86328125 195.11328125 C-126.84748047 196.16032227 -126.84748047 196.16032227 -127.8515625 197.22851562 C-129.11967762 198.57620371 -130.38912013 199.92264455 -131.66015625 201.26757812 C-134.74108806 204.53939375 -137.75724612 207.84837768 -140.69921875 211.24609375 C-143.54749832 214.52894465 -146.56371311 217.47467629 -149.8125 220.359375 C-151.18132113 221.91296083 -151.18132113 221.91296083 -151 223.85546875 C-149.56310952 226.93692529 -147.33936963 229.15114977 -145 231.5625 C-141.42091197 235.34927206 -137.99000452 239.16289506 -134.75 243.25 C-130.27199565 248.8192148 -125.41616434 253.99183379 -120.49121094 259.16699219 C-116.75827779 263.09379256 -113.13133465 267.08850579 -109.58056641 271.1809082 C-107.58260274 273.48038724 -105.54451139 275.74188295 -103.5 278 C-98.71199821 283.3110608 -93.97812349 288.66131351 -89.35546875 294.1171875 C-83.60577186 300.89052651 -77.72906358 307.49215859 -71.64160156 313.96386719 C-68.4914292 317.33298502 -65.50126357 320.76483053 -62.625 324.375 C-58.19561764 329.91172795 -53.37532737 335.03478493 -48.49072266 340.16748047 C-41.55716215 347.46122594 -35.04070099 355.09979865 -28.51269531 362.75488281 C-24.86470746 367.02117369 -21.13974267 371.20661971 -17.328125 375.328125 C-16 377 -16 377 -16 379 C-29.53456366 379.20880194 -43.06874238 379.36858332 -56.60459042 379.46630955 C-62.89037522 379.51322106 -69.17505578 379.57681987 -75.46020508 379.67895508 C-81.52924462 379.77695792 -87.59722417 379.83060304 -93.66699409 379.85389519 C-95.9791183 379.87048712 -98.29118638 379.9028891 -100.60285759 379.95157051 C-118.72333148 380.31788973 -118.72333148 380.31788973 -124.38442993 377.04086304 C-126.65704801 374.80315121 -128.32871443 372.70279935 -130 370 C-130.8353125 369.0203125 -131.670625 368.040625 -132.53125 367.03125 C-133.1809375 366.1959375 -133.830625 365.360625 -134.5 364.5 C-138.04839119 360.06760195 -141.82243048 356.07140867 -145.8828125 352.109375 C-148.45824734 349.54344361 -150.8295519 346.84417452 -153.1953125 344.0859375 C-155.21651276 341.74974499 -157.29378839 339.47035149 -159.375 337.1875 C-162.57652433 333.64839998 -165.63146063 330.02896894 -168.625 326.3125 C-171.68709438 322.52741112 -174.84917666 319.03573631 -178.33984375 315.6484375 C-181.89570687 312.11767459 -185.0808977 308.24656538 -188.33349609 304.43896484 C-188.81512207 303.87516113 -189.29674805 303.31135742 -189.79296875 302.73046875 C-190.29489746 302.14289795 -190.79682617 301.55532715 -191.31396484 300.94995117 C-193.37897529 298.53582026 -195.4491396 296.12616643 -197.52197266 293.71875 C-198.47435675 292.61125347 -199.42471313 291.50200837 -200.37255859 290.390625 C-201.59406678 288.96146503 -202.8279054 287.54287046 -204.0625 286.125 C-204.75472656 285.32320313 -205.44695312 284.52140625 -206.16015625 283.6953125 C-207.95073068 281.66118433 -207.95073068 281.66118433 -211 282 C-218.10630017 285.22663817 -223.68921692 291.01426419 -227 298 C-230.1499767 310.28778813 -228.83864488 324.03237701 -228.50390625 336.58886719 C-228.39270934 341.35888776 -228.3678637 346.12928318 -228.33789062 350.90039062 C-228.30128573 356.25018318 -228.25616395 361.59854859 -228.14463806 366.94737244 C-228.1287413 367.75285019 -228.11284454 368.55832794 -228.09646606 369.38821411 C-228.06529025 370.89655541 -228.02996591 372.40481852 -227.98985291 373.91294861 C-227.95559209 375.60828963 -227.97224129 377.30454005 -228 379 C-230.02398731 381.02398731 -234.13949088 380.21203932 -236.91796875 380.23828125 C-237.72680008 380.246353 -238.53563141 380.25442474 -239.36897278 380.26274109 C-241.09320927 380.27661427 -242.81747359 380.28732186 -244.54174805 380.29516602 C-247.13191711 380.31213584 -249.72072599 380.35595682 -252.31054688 380.40039062 C-267.87832701 380.54718657 -280.67247746 378.2429269 -292.6875 367.625 C-301.33016015 357.8144128 -305.14999991 349.21219854 -305.14717102 336.01316833 C-305.15084771 335.09462903 -305.1545244 334.17608972 -305.1583125 333.22971588 C-305.1693461 330.14459336 -305.17319266 327.05950453 -305.17700195 323.97436523 C-305.18326691 321.76504916 -305.18991374 319.55573415 -305.19691467 317.34642029 C-305.21795587 310.08381891 -305.22831801 302.82121731 -305.23828125 295.55859375 C-305.24232896 293.0576228 -305.24644589 290.55665195 -305.25063133 288.05568123 C-305.26750091 277.65085267 -305.28213486 267.24602569 -305.28938007 256.84118557 C-305.29128984 254.14241471 -305.29321019 251.44364387 -305.29516602 248.74487305 C-305.29564976 248.07414153 -305.2961335 247.40341001 -305.2966319 246.7123533 C-305.30492542 235.8562215 -305.33025132 225.00020013 -305.36274669 214.14411651 C-305.39586863 202.98732871 -305.41350113 191.83058078 -305.41702431 180.67373997 C-305.41937319 174.4141023 -305.42831261 168.15463916 -305.45348549 161.89504814 C-305.47679899 156.00252622 -305.48098605 150.11029332 -305.47072411 144.2177372 C-305.47022942 142.05990512 -305.47652999 139.90205865 -305.49028015 137.74427032 C-305.58587431 121.8480185 -304.36856537 108.9439859 -292.96484375 96.83984375 C-283.0985166 87.53034635 -272.13088387 83.65038819 -258.72265625 83.76953125 C-257.87070175 83.76998947 -257.01874725 83.77044769 -256.14097595 83.7709198 C-254.35690908 83.77392002 -252.5728443 83.78173862 -250.78881836 83.79418945 C-248.0459681 83.81261103 -245.30345296 83.8146977 -242.56054688 83.81445312 C-240.82291372 83.81936296 -239.08528287 83.82518894 -237.34765625 83.83203125 C-236.11342674 83.83370049 -236.11342674 83.83370049 -234.85426331 83.83540344 C-229.11610269 83.88389731 -229.11610269 83.88389731 -228 85 C-227.874595 88.10435737 -227.8138673 91.18752496 -227.79467773 94.29321289 C-227.78477814 95.26871597 -227.77487854 96.24421906 -227.76467896 97.24928284 C-227.73296052 100.49038218 -227.70826581 103.73149622 -227.68359375 106.97265625 C-227.66303314 109.21325574 -227.64203692 111.45385127 -227.62062073 113.69444275 C-227.56530775 119.60455123 -227.5159393 125.51469525 -227.46777344 131.42486572 C-227.4176256 137.45059386 -227.36190455 143.47627012 -227.30664062 149.50195312 C-227.19894628 161.33459114 -227.09752652 173.16727412 -227 185 C-225.07264457 183.08619761 -223.1471436 181.17058917 -221.22265625 179.25390625 C-220.68016235 178.71560181 -220.13766846 178.17729736 -219.57873535 177.62268066 C-216.75735601 174.8098802 -214.01781482 171.97713788 -211.4375 168.9375 C-208.17956595 165.1060421 -204.62784 161.59915808 -201.05102539 158.07055664 C-197.77962934 154.82619226 -194.73028962 151.46373664 -191.7421875 147.9609375 C-189.03077636 144.90908012 -186.09662853 142.08855234 -183.19140625 139.22265625 C-180.57898932 136.5729856 -178.16697379 133.78827197 -175.74609375 130.96484375 C-173.90384325 128.89179676 -171.97598338 126.94564198 -170 125 C-167.48238304 122.52074673 -165.09909278 120.00559816 -162.8125 117.3125 C-159.55569958 113.51664296 -156.05387562 110.01377547 -152.5 106.5 C-148.44533738 102.49088259 -144.56021837 98.44135484 -140.87109375 94.08984375 C-138.35616506 91.28089417 -135.68164192 88.64891902 -133 86 C-129.77790033 82.81712248 -126.60947514 79.65309842 -123.6875 76.1875 C-119.58034715 71.35018664 -115.00103606 66.97666246 -110.49584961 62.51538086 C-106.60047092 58.64342421 -102.8268107 54.72877407 -99.296875 50.515625 C-98 49 -98 49 -96.328125 47.484375 C-94.66660257 45.95934676 -94.66660257 45.95934676 -95 43 C-96.71717061 41.31793655 -96.71717061 41.31793655 -99.015625 39.75 C-99.85480469 39.1415625 -100.69398438 38.533125 -101.55859375 37.90625 C-102.44675781 37.2771875 -103.33492187 36.648125 -104.25 36 C-105.12269531 35.3709375 -105.99539063 34.741875 -106.89453125 34.09375 C-108.52702671 32.91735632 -110.16247828 31.74504665 -111.80175781 30.578125 C-112.52717773 30.05734375 -113.25259766 29.5365625 -114 29 C-115.13066895 28.24976563 -115.13066895 28.24976563 -116.28417969 27.484375 C-117.13351074 26.74960937 -117.13351074 26.74960937 -118 26 C-118 25.01 -118 24.02 -118 23 C-92.28651599 17.41220576 -66.53637452 12.02715004 -40.74560547 6.80737305 C-39.65246033 6.58596146 -38.55931519 6.36454987 -37.43304443 6.13642883 C-35.29836755 5.70446735 -33.16348461 5.27352273 -31.02838135 4.84367371 C-26.10658476 3.84948909 -21.19231493 2.8324427 -16.28857422 1.75244141 C-15.40660873 1.55975174 -14.52464325 1.36706207 -13.61595154 1.16853333 C-11.98150002 0.80927209 -10.34844831 0.44355583 -8.71717834 0.07011414 C-3.3323372 -1.11077907 -3.3323372 -1.11077907 0 0 Z " fill="#E0252A" transform="translate(365,18)"/>
<path d="M0 0 C0 2.97 0 5.94 0 9 C-0.66 9 -1.32 9 -2 9 C-2.495 5.535 -2.495 5.535 -3 2 C-6.25031727 2.64424333 -9.50019606 3.29067263 -12.75 3.9375 C-13.67039062 4.11990234 -14.59078125 4.30230469 -15.5390625 4.49023438 C-16.87324219 4.75610352 -16.87324219 4.75610352 -18.234375 5.02734375 C-19.45979004 5.27085571 -19.45979004 5.27085571 -20.70996094 5.51928711 C-22.11088904 5.81336253 -23.50793072 6.12806903 -24.89595032 6.4780426 C-26.90894815 6.97741252 -28.92307845 7.41623666 -30.95483398 7.83203125 C-31.71920273 7.98889404 -32.48357147 8.14575684 -33.27110291 8.30737305 C-34.08784988 8.47406494 -34.90459686 8.64075684 -35.74609375 8.8125 C-36.59422134 8.98628174 -37.44234894 9.16006348 -38.31617737 9.33911133 C-41.02312028 9.89354861 -43.73030896 10.44677571 -46.4375 11 C-48.25587505 11.37231929 -50.0742346 11.74471429 -51.89257812 12.1171875 C-65.78908044 14.962396 -65.78908044 14.962396 -71 16 C-76.60832148 17.11983441 -82.21490947 18.24798443 -87.82006836 19.38354492 C-89.64973 19.75312582 -91.47981108 20.12063621 -93.31030273 20.48608398 C-95.95928413 21.01530941 -98.60669456 21.55184524 -101.25390625 22.08984375 C-102.07065323 22.25137436 -102.88740021 22.41290497 -103.72889709 22.57933044 C-104.87545021 22.81451134 -104.87545021 22.81451134 -106.04516602 23.05444336 C-107.04846703 23.25643593 -107.04846703 23.25643593 -108.07203674 23.46250916 C-110.06822345 23.94489807 -110.06822345 23.94489807 -111.99717712 25.05909729 C-114 26 -114 26 -118 26 C-118 25.01 -118 24.02 -118 23 C-92.28651599 17.41220576 -66.53637452 12.02715004 -40.74560547 6.80737305 C-39.65246033 6.58596146 -38.55931519 6.36454987 -37.43304443 6.13642883 C-35.29836755 5.70446735 -33.16348461 5.27352273 -31.02838135 4.84367371 C-26.10658476 3.84948909 -21.19231493 2.8324427 -16.28857422 1.75244141 C-15.40660873 1.55975174 -14.52464325 1.36706207 -13.61595154 1.16853333 C-11.98150002 0.80927209 -10.34844831 0.44355583 -8.71717834 0.07011414 C-3.3323372 -1.11077907 -3.3323372 -1.11077907 0 0 Z " fill="#EA5341" transform="translate(365,18)"/>
<path d="M0 0 C0.99 0.33 1.98 0.66 3 1 C2.27087654 1.54736565 2.27087654 1.54736565 1.52702332 2.10578918 C-0.66493137 4.82482053 -0.39885739 6.84185458 -0.43237305 10.30737305 C-0.46206429 12.25905647 -0.46206429 12.25905647 -0.49235535 14.25016785 C-0.49912517 15.67068335 -0.50557203 17.09120042 -0.51171875 18.51171875 C-0.52856329 19.96476261 -0.54671324 21.41779188 -0.56611633 22.87080383 C-0.61364742 26.69299764 -0.64343635 30.5151323 -0.66955566 34.33752441 C-0.69934573 38.23880701 -0.74588132 42.13988571 -0.79101562 46.04101562 C-0.87708396 53.69390932 -0.94441319 61.34681778 -1 69 C-1.33 69 -1.66 69 -2 69 C-2.74917803 64.97889637 -3.13327285 61.16221912 -3.16113281 57.07397461 C-3.17074036 55.92936264 -3.1803479 54.78475067 -3.19024658 53.60545349 C-3.19449646 52.38342728 -3.19874634 51.16140106 -3.203125 49.90234375 C-3.20882507 48.6353212 -3.21452515 47.36829865 -3.22039795 46.06288147 C-3.22982731 43.38913383 -3.23673566 40.71549789 -3.24023438 38.04174805 C-3.24573357 34.62318106 -3.26981078 31.20500942 -3.29820633 27.78656673 C-3.32133938 24.51268924 -3.32328113 21.23879154 -3.328125 17.96484375 C-3.3404718 16.7407933 -3.3528186 15.51674286 -3.36553955 14.25559998 C-3.36253845 13.11414017 -3.35953735 11.97268036 -3.35644531 10.79663086 C-3.36009094 9.79546738 -3.36373657 8.79430389 -3.36749268 7.76280212 C-2.94072958 4.55440627 -1.82561537 2.64098174 0 0 Z " fill="#BF052A" transform="translate(138,312)"/>
<path d="M0 0 C2.82733161 2.7441748 5.44444726 5.51031934 7.9375 8.5625 C11.85046835 13.177796 16.29853076 15.98771674 22 18 C22 18.66 22 19.32 22 20 C24.01822917 20.16276042 26.03645833 20.32552083 28.0546875 20.48828125 C30 21 30 21 32 24 C19.87359186 21.84854049 10.42313342 16.95122427 3.125 6.8125 C0 2.3008658 0 2.3008658 0 0 Z " fill="#C10E29" transform="translate(64,373)"/>
<path d="M0 0 C0 0.33 0 0.66 0 1 C-2.89568747 1.64649305 -5.79154279 2.29221732 -8.6875 2.9375 C-9.91243164 3.21110352 -9.91243164 3.21110352 -11.16210938 3.49023438 C-15.10082483 4.36727628 -19.03791195 5.23340455 -23 6 C-23 5.01 -23 4.02 -23 3 C-20.1066878 2.29995665 -17.21116999 1.6146758 -14.3125 0.9375 C-13.49587891 0.73833984 -12.67925781 0.53917969 -11.83789062 0.33398438 C-7.58990788 -0.64631933 -4.27435495 -1.38415975 0 0 Z " fill="#E7453C" transform="translate(270,38)"/>
<path d="M0 0 C-3.60438799 2.10943827 -7.38559587 2.8486821 -11.4375 3.625 C-12.09298828 3.7590625 -12.74847656 3.893125 -13.42382812 4.03125 C-16.99774854 4.73384619 -20.35824021 5.15437132 -24 5 C-24 4.34 -24 3.68 -24 3 C-15.95969329 1.22032737 -8.28982104 -0.43630637 0 0 Z " fill="#ED594D" transform="translate(293,33)"/>
<path d="M0 0 C0.99 0.33 1.98 0.66 3 1 C2.51917969 1.32613281 2.03835937 1.65226562 1.54296875 1.98828125 C-0.82372666 5.07397274 -0.57299527 8.44155967 -0.6875 12.1875 C-0.72166016 12.93708984 -0.75582031 13.68667969 -0.79101562 14.45898438 C-0.87334294 16.30546838 -0.93835281 18.15270994 -1 20 C-1.66 19.67 -2.32 19.34 -3 19 C-3.0814222 16.77144426 -3.13938079 14.54202345 -3.1875 12.3125 C-3.22230469 11.07113281 -3.25710937 9.82976562 -3.29296875 8.55078125 C-2.9846829 4.81435679 -2.18088273 2.99370517 0 0 Z " fill="#DD0613" transform="translate(138,312)"/>
<path d="M0 0 C0.99 0.33 1.98 0.66 3 1 C-2.28 6.28 -7.56 11.56 -13 17 C-13.66 16.67 -14.32 16.34 -15 16 C-14.41992188 15.43152344 -13.83984375 14.86304687 -13.2421875 14.27734375 C-8.59383097 9.68268111 -4.17366549 5.029802 0 0 Z " fill="#EC3328" transform="translate(266,68)"/>
<path d="M0 0 C0.66 0.33 1.32 0.66 2 1 C-0.31 3.64 -2.62 6.28 -5 9 C-5.99 8.67 -6.98 8.34 -8 8 C-5.36 5.36 -2.72 2.72 0 0 Z " fill="#EE251C" transform="translate(250,85)"/>
<path d="M0 0 C-0.33 0.66 -0.66 1.32 -1 2 C-3.97 1.67 -6.94 1.34 -10 1 C-10 0.67 -10 0.34 -10 0 C-6.30458414 -0.95024979 -3.69541586 -0.95024979 0 0 Z " fill="#ED4333" transform="translate(299,32)"/>
<path d="M0 0 C0.33 1.32 0.66 2.64 1 4 C-0.32 4.99 -1.64 5.98 -3 7 C-3.66 6.67 -4.32 6.34 -5 6 C-3.35 4.02 -1.7 2.04 0 0 Z " fill="#EC1E1C" transform="translate(202,135)"/>
<path d="M0 0 C0.99 0.33 1.98 0.66 3 1 C2.5359375 1.86625 2.5359375 1.86625 2.0625 2.75 C1.07416636 4.84294184 0.4831387 6.74535275 0 9 C-0.33 9 -0.66 9 -1 9 C-0.67 6.03 -0.34 3.06 0 0 Z " fill="#DC131A" transform="translate(61,134)"/>
</svg>
